<svg id="Layer_1" xmlns="http://www.w3.org/2000/svg" viewBox="0 0 512 512"><style>.st0{fill:#fff4ee}.st1{fill:#ff5454}</style><circle class="st0" cx="256" cy="256" r="256"/><path class="st1" d="M295.2 216.3h-78.4c-3.7 0-6.8-3-6.8-6.8s3-6.8 6.8-6.8h78.4c3.7 0 6.8 3 6.8 6.8s-3.1 6.8-6.8 6.8zm0 32.5h-78.4c-3.7 0-6.8-3-6.8-6.8 0-3.7 3-6.8 6.8-6.8h78.4c3.7 0 6.8 3 6.8 6.8s-3.1 6.8-6.8 6.8z"/><path class="st1" d="M275.1 309.2c-1.1 0-2.2-.3-3.2-.8l-51-27.9c-2.7-1.5-4.1-4.6-3.3-7.6s3.5-5.1 6.6-5.1h6.7c14.2 0 25.8-11.6 25.8-25.8 0-14.1-11.5-25.7-25.7-25.7-3.7 0-6.8-3-6.8-6.8s3-6.8 6.8-6.8c21.6 0 39.2 17.6 39.2 39.2 0 16.5-10.2 30.7-24.7 36.5l32.9 18c3.3 1.8 4.5 5.9 2.7 9.2-1.2 2.3-3.6 3.6-6 3.6z"/><path class="st1" d="M330.4 360.2H181.6c-16.5 0-29.9-13.4-29.9-29.9V181.6c0-16.5 13.4-29.9 29.9-29.9h148.7c16.5 0 29.9 13.4 29.9 29.9v148.7c0 16.5-13.4 29.9-29.8 29.9zM181.6 165.3c-9 0-16.3 7.3-16.3 16.3v148.7c0 9 7.3 16.3 16.3 16.3h148.7c9 0 16.3-7.3 16.3-16.3V181.6c0-9-7.3-16.3-16.3-16.3H181.6z"/></svg>