<svg id="Layer_1" xmlns="http://www.w3.org/2000/svg" viewBox="0 0 512 512"><style>.st0{fill:#fff4ee}.st1{fill:#ff5454}</style><circle class="st0" cx="256" cy="256" r="256"/><path class="st1" d="M335.5 246.2c-3 0-5.8-1.7-7-4.7-7.9-18.6-23.2-33.8-41.8-41.7-3.9-1.6-5.7-6.1-4.1-10s6.1-5.7 10-4.1c11.2 4.7 21.2 11.5 29.8 20.1 8.6 8.6 15.4 18.6 20.1 29.8 1.7 3.9-.2 8.4-4 10-.9.4-2 .6-3 .6zm-159.1 0c-1 0-2-.2-3-.6-3.9-1.7-5.7-6.1-4-10 9.3-22 26.5-39.4 48.3-49.2 3.9-1.7 8.4 0 10.1 3.9 1.7 3.9 0 8.4-3.9 10.1-18.3 8.2-32.6 22.8-40.5 41.2-1.2 2.9-4 4.6-7 4.6z"/><path class="st1" d="M256 366.4c-51.9 0-94.1-42.2-94.1-94.1s42.2-94.1 94.1-94.1 94.1 42.2 94.1 94.1-42.2 94.1-94.1 94.1zm0-172.8c-43.4 0-78.8 35.3-78.8 78.8 0 43.4 35.3 78.8 78.8 78.8s78.8-35.3 78.8-78.8-35.4-78.8-78.8-78.8z"/><ellipse transform="rotate(-62.348 256.004 185.889)" class="st0" cx="256" cy="185.9" rx="32.7" ry="32.7"/><path class="st1" d="M256 226.3c-22.3 0-40.4-18.1-40.4-40.4s18.1-40.4 40.4-40.4 40.4 18.1 40.4 40.4-18.1 40.4-40.4 40.4zm0-65.4c-13.8 0-25.1 11.3-25.1 25.1s11.3 25.1 25.1 25.1 25.1-11.3 25.1-25.1c0-13.9-11.3-25.1-25.1-25.1z"/><circle class="st0" cx="177.2" cy="308.2" r="32.7"/><path class="st1" d="M177.2 348.5c-22.3 0-40.4-18.1-40.4-40.4s18.1-40.4 40.4-40.4 40.4 18.1 40.4 40.4-18.1 40.4-40.4 40.4zm0-65.4c-13.8 0-25.1 11.3-25.1 25.1s11.3 25.1 25.1 25.1 25.1-11.3 25.1-25.1c0-13.9-11.2-25.1-25.1-25.1z"/><path class="st0" d="M334.8 275.4c18.1 0 32.7 14.7 32.7 32.7s-14.7 32.7-32.7 32.7-32.8-14.6-32.8-32.6c0-15.8 11.1-28.9 26-32 2.2-.5 4.4-.8 6.8-.8z"/><path class="st1" d="M334.8 267.7c-2.8 0-5.6.3-8.3.9-18.6 3.9-32.1 20.5-32.1 39.5 0 22.3 18.1 40.4 40.4 40.4 22.2 0 40.4-18.1 40.4-40.4s-18.1-40.4-40.4-40.4zm0 65.5c-13.8 0-25.1-11.3-25.1-25.1 0-11.8 8.4-22.1 19.9-24.5 1.7-.3 3.5-.5 5.2-.5 13.8 0 25 11.2 25.1 25 0 13.8-11.3 25.1-25.1 25.1z"/></svg>