<svg id="Layer_1" xmlns="http://www.w3.org/2000/svg" viewBox="0 0 512 512"><style>.st0{fill:#fff4ee}.st1{fill:#ff5454}</style><circle class="st0" cx="256" cy="256" r="256"/><path class="st1" d="M256.9 229.9c-23.7 0-43-19.3-43-43s19.3-43 43-43 43 19.3 43 43-19.3 43-43 43zm0-72c-16 0-29 13-29 29s13 29 29 29 29-13 29-29-13-29-29-29zm-43 210.3h-54.4c-6.3 0-11.4-5.1-11.4-11.4v-54.4c0-6.3 5.1-11.4 11.4-11.4h54.4c6.3 0 11.4 5.1 11.4 11.4v54.4c0 6.3-5.2 11.4-11.4 11.4zM162 354.1h49.2V305H162v49.1zm190.6 14.1h-54.4c-6.3 0-11.4-5.1-11.4-11.4v-54.4c0-6.3 5.1-11.4 11.4-11.4h54.4c6.3 0 11.4 5.1 11.4 11.4v54.4c0 6.3-5.1 11.4-11.4 11.4zm-51.8-14.1H350V305h-49.2v49.1z"/><path class="st1" d="M325.8 296.6c-3.9 0-7-3.1-7-7v-26.3H192.3v26.3c0 3.9-3.1 7-7 7s-7-3.1-7-7v-29c0-6.3 5.1-11.4 11.4-11.4h131.7c6.3 0 11.4 5.1 11.4 11.4v29c0 3.9-3.1 7-7 7z"/></svg>