<svg id="Layer_1" xmlns="http://www.w3.org/2000/svg" viewBox="0 0 512 512"><style>.st0{fill:#fff4ee}.st1{fill:#ff5454}</style><circle class="st0" cx="256" cy="256" r="256"/><path class="st1" d="M191.1 376.5c-2.6 0-5.1-1.3-6.6-3.6l-44.9-71.8c-1.1-1.7-1.4-3.8-1-5.8.5-2 1.7-3.7 3.4-4.8l28.5-17.8c3.6-2.3 8.4-1.2 10.7 2.5l44.9 71.8c1.1 1.7 1.4 3.8 1 5.8-.5 2-1.7 3.7-3.4 4.8l-28.5 17.8c-1.3.7-2.7 1.1-4.1 1.1zm-34.2-77.1l36.7 58.7 15.4-9.6-36.7-58.7-15.4 9.6z"/><path class="st1" d="M182.2 299.2c-1.9 0-3.8-.7-5.3-2.1-3.1-2.9-3.2-7.8-.3-10.9.3-.3 6.7-7.1 14.6-14.1 15.5-13.8 22.3-15.8 26.5-16h61.7c13.7 0 26.5 6.2 35 16.9l1.4 1.8c2.7 3.3 2.1 8.2-1.2 10.9-3.3 2.7-8.2 2.1-10.9-1.2l-1.4-1.8c-5.6-7-13.9-11-22.9-11h-60.9c-.7.2-5.2 1.5-17.4 12.4-7.2 6.4-13.2 12.8-13.3 12.9-1.5 1.4-3.6 2.2-5.6 2.2z"/><path class="st1" d="M269.7 344.9c-26.4 0-55.3-2.7-57.1-2.9-4.3-.4-7.4-4.2-7-8.4.4-4.3 4.2-7.4 8.4-7 18.4 1.8 70 5.2 87.4.3 7.6-2.2 26.1-19.2 55.2-60.3 1.3-1.9 1.8-4.2 1.3-6.4-.5-2.3-1.9-4.1-3.9-5.2-3.3-1.8-7.5-1.1-10 1.7l-30.7 35.1c-7 8.1-17.2 12.7-27.9 12.7h-27.5c-4.3 0-7.7-3.5-7.7-7.7 0-4.3 3.5-7.7 7.7-7.7h27.5c6.2 0 12.1-2.7 16.2-7.4l30.7-35.1c7.2-8.3 19.5-10.5 29.1-5.1 5.8 3.2 10 8.8 11.5 15.3s.1 13.4-3.7 18.8c-7.3 10.4-18.5 25.5-29.8 38.5-14.3 16.4-25 25.3-33.8 27.8-8.2 2.3-21.7 3-35.9 3zm31.3-96.6c-.9 0-1.8-.2-2.7-.5-4-1.5-6.1-5.9-4.6-9.9.9-2.5 1.4-5.1 1.4-7.8 0-12.5-10.2-22.7-22.7-22.7s-22.7 10.2-22.7 22.7c0 1.5.2 3.1.5 4.6.9 4.2-1.8 8.3-6 9.1-4.2.9-8.3-1.8-9.1-6-.5-2.5-.8-5.1-.8-7.7 0-21.1 17.1-38.2 38.2-38.2s38.2 17.1 38.2 38.2c0 4.5-.8 8.9-2.3 13.1-1.3 3.1-4.3 5.1-7.4 5.1zm38.5-44.7c-4.3 0-7.7-3.5-7.7-7.7V170c0-4.3 3.5-7.7 7.7-7.7s7.7 3.5 7.7 7.7v25.9c0 4.2-3.5 7.7-7.7 7.7zm-30.3-23c-4.3 0-7.7-3.5-7.7-7.7v-29.7c0-4.3 3.5-7.7 7.7-7.7s7.7 3.5 7.7 7.7v29.7c0 4.3-3.4 7.7-7.7 7.7z"/></svg>